<?xml version="1.0" encoding="utf-8"?>
<!-- Generator: Adobe Illustrator 25.4.1, SVG Export Plug-In . SVG Version: 6.00 Build 0)  -->
<svg version="1.1" id="Layer_3" xmlns="http://www.w3.org/2000/svg" xmlns:xlink="http://www.w3.org/1999/xlink" x="0px" y="0px"
	 viewBox="0 0 88 88" style="enable-background:new 0 0 88 88;" xml:space="preserve">
<g>
	<g>
		<path d="M44,60.9c7.5,0,13.5-6.1,13.5-13.5S51.4,33.9,44,33.9S30.5,40,30.5,47.4C30.5,54.9,36.5,60.9,44,60.9z M44,36.9
			c5.8,0,10.5,4.7,10.5,10.5S49.8,57.9,44,57.9s-10.5-4.7-10.5-10.5S38.2,36.9,44,36.9z"/>
		<path d="M14,29.8h3.1c0.8,0,1.5-0.7,1.5-1.5c0-0.8-0.7-1.5-1.5-1.5H14c-0.8,0-1.5,0.7-1.5,1.5C12.5,29.2,13.2,29.8,14,29.8z"/>
		<path d="M69.1,29.8h6.2c0.8,0,1.5-0.7,1.5-1.5c0-0.8-0.7-1.5-1.5-1.5h-6.2c-0.8,0-1.5,0.7-1.5,1.5C67.6,29.2,68.3,29.8,69.1,29.8z
			"/>
		<path d="M79.5,21.2H62.3c-1.7,0-3.2-0.8-4.2-2.2c-1.5-2.2-4-3.5-6.6-3.5H36.4c-2.6,0-5.1,1.3-6.6,3.5c-1,1.4-2.5,2.2-4.2,2.2h-3.2
			V18c0-0.8-0.7-1.5-1.5-1.5H10.3c-0.8,0-1.5,0.7-1.5,1.5v3.2H8.5c-2,0-3.7,1.7-3.7,3.7v45.2c0,2,1.7,3.7,3.7,3.7h71.1
			c2,0,3.7-1.7,3.7-3.7V24.8C83.2,22.9,81.6,21.2,79.5,21.2z M80.2,65.5h-4.4V42.4h4.4V65.5z M11.8,19.5h7.7v1.7h-7.7V19.5z
			 M8.5,24.2h1.9H21h4.6c2.6,0,5.1-1.3,6.6-3.5c1-1.4,2.5-2.2,4.2-2.2h15.1c1.7,0,3.2,0.8,4.2,2.2c1.5,2.2,4,3.5,6.6,3.5h17.1
			c0.4,0,0.7,0.3,0.7,0.7v9.3H59.8c-3.8-4.4-9.5-7.3-15.8-7.3s-12,2.8-15.8,7.3H7.8v-9.3C7.8,24.5,8.1,24.2,8.5,24.2z M44,29.8
			c9.9,0,18,8.1,18,18c0,9.9-8.1,18-18,18s-18-8.1-18-18S34.1,29.8,44,29.8z M79.5,70.8H8.5c-0.4,0-0.7-0.3-0.7-0.7v-33H26
			c-1.9,3.1-3,6.8-3,10.7c0,11.5,9.4,21,21,21s21-9.4,21-21c0-3.9-1.1-7.6-3-10.7h18.3v2.3h-5.8c-0.8,0-1.5,0.7-1.5,1.5v26
			c0,0.8,0.7,1.5,1.5,1.5h5.8v1.7C80.2,70.5,79.9,70.8,79.5,70.8z"/>
	</g>
</g>
</svg>
