<?xml version="1.0" encoding="utf-8"?>
<!-- Generator: Adobe Illustrator 25.4.1, SVG Export Plug-In . SVG Version: 6.00 Build 0)  -->
<svg version="1.1" id="Layer_1" xmlns="http://www.w3.org/2000/svg" xmlns:xlink="http://www.w3.org/1999/xlink" x="0px" y="0px"
	 viewBox="0 0 88 88" style="enable-background:new 0 0 88 88;" xml:space="preserve">
<style type="text/css">
	.st0{fill:#232020;}
</style>
<path class="st0" d="M75.6,63V21.9c0-2.9-2.3-5.2-5.2-5.2h-53c-2.9,0-5.2,2.3-5.2,5.2V63H2.5v3.2c0,2.9,2.3,5.2,5.2,5.2h72.5
	c2.9,0,5.2-2.3,5.2-5.2V63H75.6z M14.7,21.9c0-1.5,1.2-2.7,2.7-2.7h53c1.5,0,2.7,1.2,2.7,2.7V63h-2.3V23.7c0-1.3-1.1-2.4-2.4-2.4
	h-49c-1.3,0-2.4,1.1-2.4,2.4V63h-2.3C14.7,63,14.7,21.9,14.7,21.9z M33.5,65.5h20.5v0.4c0,0.5-0.4,0.9-0.9,0.9H34.4
	c-0.5,0-0.9-0.4-0.9-0.9L33.5,65.5L33.5,65.5z M69.7,63H18.3V23.7c0-0.7,0.5-1.2,1.2-1.2h49c0.7,0,1.2,0.5,1.2,1.2L69.7,63L69.7,63z
	 M82.9,66.2c0,1.5-1.2,2.7-2.7,2.7H7.7c-1.5,0-2.7-1.2-2.7-2.7v-0.8h7.3h20v0.4c0,1.2,1,2.1,2.1,2.1h18.8c1.2,0,2.1-1,2.1-2.1v-0.4
	h20.3h7.3V66.2z"/>
</svg>
